HIERARCHY
ROOT reference
{
  OFFSET 0 0 0
  CHANNELS 6 Xposition Yposition Zposition Zrotation Xrotation Yrotation
  JOINT Hips
  {
    OFFSET 18.4844 82.1181 111.677
    CHANNELS 6 Xposition Yposition Zposition Zrotation Xrotation Yrotation
    JOINT Spine
    {
      OFFSET 0 7.59534 0
      CHANNELS 6 Xposition Yposition Zposition Zrotation Xrotation Yrotation
      JOINT Spine1
      {
        OFFSET 0 23.5015 0
        CHANNELS 6 Xposition Yposition Zposition Zrotation Xrotation Yrotation
        JOINT Neck
        {
          OFFSET 0 23.405 2.12773
          CHANNELS 6 Xposition Yposition Zposition Zrotation Xrotation Yrotation
          JOINT Head
          {
            OFFSET 0 12.9677 -1.85252
            CHANNELS 6 Xposition Yposition Zposition Zrotation Xrotation Yrotation
            End Site
            {
              OFFSET 0 23.1565 0
            }
          }
        }
        JOINT LeftShoulder
        {
          OFFSET 3.62206 22.4732 -0.132728
          CHANNELS 6 Xposition Yposition Zposition Zrotation Xrotation Yrotation
          JOINT LeftArm
          {
            OFFSET 8.17784 0 0
            CHANNELS 6 Xposition Yposition Zposition Zrotation Xrotation Yrotation
            JOINT LeftForeArm
            {
              OFFSET 30.104 0 0
              CHANNELS 6 Xposition Yposition Zposition Zrotation Xrotation Yrotation
              JOINT LeftHand
              {
                OFFSET 24.4664 0 0
                CHANNELS 6 Xposition Yposition Zposition Zrotation Xrotation Yrotation
                End Site
                {
                  OFFSET 13.8939 0 0
                }
              }
            }
          }
        }
        JOINT RightShoulder
        {
          OFFSET -3.6336 22.4732 -0.132728
          CHANNELS 6 Xposition Yposition Zposition Zrotation Xrotation Yrotation
          JOINT RightArm
          {
            OFFSET -8.17784 0 0
            CHANNELS 6 Xposition Yposition Zposition Zrotation Xrotation Yrotation
            JOINT RightForeArm
            {
              OFFSET -30.104 0 0
              CHANNELS 6 Xposition Yposition Zposition Zrotation Xrotation Yrotation
              JOINT RightHand
              {
                OFFSET -24.4664 0 0
                CHANNELS 6 Xposition Yposition Zposition Zrotation Xrotation Yrotation
                End Site
                {
                  OFFSET -13.8939 0 0
                }
              }
            }
          }
        }
      }
    }
    JOINT LeftUpLeg
    {
      OFFSET 9.26261 0 0
      CHANNELS 6 Xposition Yposition Zposition Zrotation Xrotation Yrotation
      JOINT LeftLeg
      {
        OFFSET 0 -35.4897 0
        CHANNELS 6 Xposition Yposition Zposition Zrotation Xrotation Yrotation
        JOINT LeftFoot
        {
          OFFSET 0 -38.2023 0
          CHANNELS 6 Xposition Yposition Zposition Zrotation Xrotation Yrotation
          JOINT LeftToeBase
          {
            OFFSET 0 -6.0207 13.8939
            CHANNELS 6 Xposition Yposition Zposition Zrotation Xrotation Yrotation
            End Site
            {
              OFFSET 0 0 3.70504
            }
          }
        }
      }
    }
    JOINT RightUpLeg
    {
      OFFSET -9.26261 0 0
      CHANNELS 6 Xposition Yposition Zposition Zrotation Xrotation Yrotation
      JOINT RightLeg
      {
        OFFSET 0 -35.4897 0
        CHANNELS 6 Xposition Yposition Zposition Zrotation Xrotation Yrotation
        JOINT RightFoot
        {
          OFFSET 0 -38.2023 0
          CHANNELS 6 Xposition Yposition Zposition Zrotation Xrotation Yrotation
          JOINT RightToeBase
          {
            OFFSET 0 -6.0207 13.8939
            CHANNELS 6 Xposition Yposition Zposition Zrotation Xrotation Yrotation
            End Site
            {
              OFFSET 0 0 3.70504
            }
          }
        }
      }
    }
  }
}
MOTION
Frames:	4
Frame Time:	0.004
0 0 0 0 0 -0 -1.96751 73.8467 -190.837 -1.56856 3.42394 -2.9562 1.77636e-015 7.59534 -2.84217e-014 -3.79117 1.61751 -2.34025 0 23.5015 0 0.571403 -7.05097 -2.35853 0 23.405 2.12773 -4.12505 19.2835 -5.49228 -7.10543e-015 12.9677 -1.85252 14.3534 -10.6364 -2.48285 3.62206 22.4732 -0.132728 11.0213 3.15114 17.4685 8.17784 -2.84217e-014 0 -21.9815 -1.05711 3.82355 30.104 0 0 8.34076 -11.3947 -0.392396 24.4664 0 0 7.27087 -11.7489 -6.13807 -3.6336 22.4732 -0.132728 -9.08112 2.3451 13.0841 -8.17784 0 -2.84217e-014 17.3468 -5.53284 -6.64828 -30.104 0 0 -12.821 -5.18895 12.819 -24.4664 2.84217e-014 0 34.9715 -0.40752 10.5768 9.26261 -1.42109e-014 0 6.0063 7.79569 0.225448 1.77636e-015 -35.4897 0 -10.6873 19.2392 6.8564 0 -38.2023 0 -1.96592 -15.2539 15.2133 0 -6.0207 13.8939 0 1.59028e-015 -0 -9.26261 -2.13163e-014 -2.84217e-014 -1.76543 -20.4348 1.51646 -3.55271e-015 -35.4897 0 -5.00437 44.7563 -7.38749 0 -38.2023 0 3.83342 -4.92537 6.44495 0 -6.0207 13.8939 -7.95139e-016 0 7.95139e-016 
0 0 0 0 0 -0 -1.91466 73.6506 -190.818 -1.51297 3.3698 -2.87238 0 7.59534 0 -3.84395 1.98792 -2.55398 -3.55271e-015 23.5015 -2.84217e-014 0.234648 -7.26324 -2.60574 -7.10543e-015 23.405 2.12773 -3.85292 19.6089 -5.33863 7.10543e-015 12.9677 -1.85252 14.8582 -10.9819 -2.16431 3.62206 22.4732 -0.132728 10.7493 3.39506 17.4661 8.17784 0 0 -22.2177 -0.784654 3.76276 30.104 0 0 8.28095 -11.7944 -0.147069 24.4664 0 -2.84217e-014 6.51853 -12.1319 -6.2418 -3.6336 22.4732 -0.132728 -9.09639 2.2656 13.2608 -8.17784 1.42109e-014 0 17.3661 -5.12752 -6.75477 -30.104 0 0 -13.6054 -5.77003 13.6519 -24.4664 0 0 35.533 -0.834336 10.2972 9.26261 7.10543e-015 0 5.87126 7.80769 0.418039 1.77636e-015 -35.4897 0 -10.7147 19.4493 6.70426 3.55271e-015 -38.2023 0 -1.19407 -15.9018 15.4324 -1.42109e-014 -6.0207 13.8939 7.95139e-016 -4.77083e-015 -3.18055e-015 -9.26261 -1.42109e-014 -2.84217e-014 -1.85711 -21.4494 1.56644 3.55271e-015 -35.4897 0 -4.9534 46.6616 -7.58102 0 -38.2023 0 3.50451 -4.69938 6.45995 0 -6.0207 13.8939 -1.19271e-015 -3.18055e-015 -0 
0 0 0 0 0 -0 -1.86237 73.4449 -190.796 -1.4383 3.28407 -2.78663 1.77636e-015 7.59534 2.84217e-014 -3.93783 2.36782 -2.75758 0 23.5015 0 -0.023787 -7.38541 -2.84044 -7.10543e-015 23.405 2.12773 -3.64556 19.7891 -5.19144 -1.42109e-014 12.9677 -1.85252 15.3421 -11.2519 -1.85973 3.62206 22.4732 -0.132728 10.4089 3.53981 17.5557 8.17784 0 0 -22.6086 0.353484 3.60025 30.104 0 0 8.37234 -12.5858 0.141999 24.4664 0 2.84217e-014 6.86291 -12.947 -6.00095 -3.6336 22.4732 -0.132728 -9.17518 2.22928 13.2944 -8.17784 1.42109e-014 0 17.3131 -4.81809 -6.7151 -30.104 0 0 -14.4876 -6.03914 14.4169 -24.4664 2.84217e-014 0 36.493 -0.785669 10.3501 9.26261 7.10543e-015 2.84217e-014 5.73181 7.84764 0.736213 1.77636e-015 -35.4897 2.84217e-014 -10.7489 19.6828 6.52941 0 -38.2023 0 -0.641582 -16.5621 15.6356 0 -6.0207 13.8939 -0 0 6.36111e-015 -9.26261 -7.10543e-015 2.84217e-014 -1.95945 -22.4279 1.62237 0 -35.4897 2.84217e-014 -4.9095 48.5093 -8.01991 0 -38.2023 0 3.16066 -4.45666 6.76341 7.10543e-015 -6.0207 13.8939 1.59028e-015 3.18055e-015 -7.95139e-016 
0 0 0 0 0 -0 -1.80993 73.2429 -190.767 -1.40547 3.17489 -2.65984 0 7.59534 2.84217e-014 -4.0182 2.75134 -2.95546 3.55271e-015 23.5015 -2.84217e-014 -0.204517 -7.4562 -3.06527 0 23.405 2.12773 -3.43477 19.9201 -5.07902 0 12.9677 -1.85252 15.7788 -11.4963 -1.60155 3.62206 22.4732 -0.132728 10.0048 3.63304 17.5815 8.17784 -1.42109e-014 0 -22.835 0.647362 3.4472 30.104 0 0 8.20455 -12.9275 0.329713 24.4664 0 0 7.3175 -13.3178 -5.8952 -3.6336 22.4732 -0.132728 -9.35582 2.06109 13.2912 -8.17784 0 0 17.3835 -4.3506 -6.69343 -30.104 -2.84217e-014 0 -15.5584 -6.12805 15.1838 -24.4664 2.84217e-014 2.84217e-014 37.4205 -0.59158 10.1912 9.26261 -1.42109e-014 2.84217e-014 5.62503 7.89905 1.02688 -1.77636e-015 -35.4897 2.84217e-014 -10.7241 19.9295 6.41391 0 -38.2023 0 -0.36657 -17.3781 15.6949 0 -6.0207 13.8939 7.95139e-016 0 3.18055e-015 -9.26261 -2.13163e-014 0 -2.04295 -23.3583 1.70544 3.55271e-015 -35.4897 5.68434e-014 -4.77763 50.2901 -8.6788 7.10543e-015 -38.2023 0 2.55647 -4.05227 7.19297 0 -6.0207 13.8939 -7.95139e-016 3.18055e-015 -0 
